<svg width="70" height="70" viewBox="0 0 60 60" fill="none" xmlns="http://www.w3.org/2000/svg">
<path fill-rule="evenodd" clip-rule="evenodd" d="M40.7811 33.1548C42.2567 30.4493 43.0952 27.3464 43.0952 24.0476C43.0952 13.5279 34.5673 5 24.0476 5C13.5279 5 5 13.5279 5 24.0476C5 34.5673 13.5279 43.0952 24.0476 43.0952C27.0192 43.0952 29.8318 42.4148 32.3382 41.2012L45.3175 45L40.7811 33.1548Z" fill="white"/>
<path d="M14.368 29.14C13.6307 29.14 13.0287 29.0373 12.562 28.832C12.1047 28.6173 11.7407 28.3 11.47 27.88C11.2087 27.46 11.0267 26.942 10.924 26.326C10.8307 25.71 10.784 24.996 10.784 24.184C10.784 23.3627 10.8307 22.6393 10.924 22.014C11.0267 21.3887 11.2087 20.866 11.47 20.446C11.7407 20.026 12.1093 19.7133 12.576 19.508C13.0427 19.2933 13.64 19.186 14.368 19.186C14.704 19.186 15.0353 19.2047 15.362 19.242C15.698 19.27 16.0107 19.312 16.3 19.368C16.5987 19.4147 16.8507 19.4613 17.056 19.508L17.014 20.53C16.8087 20.4927 16.5567 20.4553 16.258 20.418C15.9687 20.3807 15.67 20.3527 15.362 20.334C15.054 20.306 14.774 20.292 14.522 20.292C13.9993 20.292 13.5747 20.3667 13.248 20.516C12.9307 20.6653 12.6833 20.9033 12.506 21.23C12.338 21.5473 12.2213 21.9533 12.156 22.448C12.0907 22.9333 12.058 23.512 12.058 24.184C12.058 24.8467 12.0907 25.4253 12.156 25.92C12.2213 26.4053 12.338 26.8067 12.506 27.124C12.674 27.432 12.9213 27.6653 13.248 27.824C13.5747 27.9733 14.004 28.048 14.536 28.048C14.928 28.048 15.3573 28.0247 15.824 27.978C16.2907 27.922 16.6873 27.866 17.014 27.81L17.056 28.846C16.832 28.8927 16.5707 28.9393 16.272 28.986C15.9733 29.0327 15.656 29.07 15.32 29.098C14.9933 29.126 14.676 29.14 14.368 29.14ZM18.5816 29V18.976H19.7576V22.364C20.0002 22.252 20.3222 22.14 20.7236 22.028C21.1249 21.916 21.5076 21.86 21.8716 21.86C22.5156 21.86 23.0102 21.9767 23.3556 22.21C23.7009 22.434 23.9342 22.798 24.0556 23.302C24.1862 23.806 24.2516 24.4687 24.2516 25.29V29H23.0616V25.346C23.0616 24.758 23.0242 24.2867 22.9496 23.932C22.8842 23.5773 22.7536 23.3207 22.5576 23.162C22.3616 23.0033 22.0536 22.924 21.6336 22.924C21.2976 22.924 20.9522 22.9707 20.5976 23.064C20.2522 23.148 19.9722 23.232 19.7576 23.316V29H18.5816ZM27.7101 29.14C27.0474 29.14 26.5434 28.958 26.1981 28.594C25.8621 28.23 25.6941 27.6933 25.6941 26.984C25.6941 26.5173 25.7734 26.1393 25.9321 25.85C26.1001 25.5607 26.3474 25.3413 26.6741 25.192C27.0101 25.0427 27.4161 24.9493 27.8921 24.912L29.9921 24.702V24.128C29.9921 23.6707 29.8894 23.3487 29.6841 23.162C29.4788 22.9753 29.1801 22.882 28.7881 22.882C28.5454 22.882 28.2608 22.8913 27.9341 22.91C27.6168 22.9287 27.2948 22.952 26.9681 22.98C26.6508 23.008 26.3708 23.036 26.1281 23.064L26.0721 22.168C26.2961 22.1213 26.5668 22.0747 26.8841 22.028C27.2108 21.9813 27.5468 21.944 27.8921 21.916C28.2468 21.8787 28.5688 21.86 28.8581 21.86C29.3994 21.86 29.8428 21.9393 30.1881 22.098C30.5334 22.2567 30.7854 22.504 30.9441 22.84C31.1121 23.1667 31.1961 23.5913 31.1961 24.114V27.614C31.2148 27.81 31.2941 27.9547 31.4341 28.048C31.5741 28.132 31.7514 28.188 31.9661 28.216L31.9241 29.14C31.7188 29.14 31.5274 29.126 31.3501 29.098C31.1728 29.0793 31.0141 29.0513 30.8741 29.014C30.7341 28.9673 30.6081 28.9113 30.4961 28.846C30.3841 28.7713 30.2768 28.6873 30.1741 28.594C29.9968 28.6687 29.7728 28.748 29.5021 28.832C29.2314 28.916 28.9421 28.986 28.6341 29.042C28.3261 29.1073 28.0181 29.14 27.7101 29.14ZM27.9201 28.16C28.1628 28.16 28.4148 28.1413 28.6761 28.104C28.9374 28.0573 29.1848 28.0013 29.4181 27.936C29.6514 27.8707 29.8428 27.81 29.9921 27.754V25.57L28.0461 25.752C27.6448 25.7893 27.3554 25.9107 27.1781 26.116C27.0008 26.312 26.9121 26.592 26.9121 26.956C26.9121 27.3293 26.9961 27.6233 27.1641 27.838C27.3414 28.0527 27.5934 28.16 27.9201 28.16ZM35.5205 29.154C35.0351 29.154 34.6478 29.0793 34.3585 28.93C34.0691 28.7807 33.8591 28.524 33.7285 28.16C33.6071 27.7867 33.5465 27.264 33.5465 26.592V23.022H32.5805V22H33.5465V19.9H34.7365V22H36.8785V23.022H34.7365V26.256C34.7365 26.732 34.7551 27.1053 34.7925 27.376C34.8391 27.6373 34.9278 27.824 35.0585 27.936C35.1985 28.0387 35.4131 28.09 35.7025 28.09C35.7958 28.09 35.9125 28.0853 36.0525 28.076C36.2018 28.0667 36.3511 28.0573 36.5005 28.048C36.6591 28.0293 36.7945 28.0153 36.9065 28.006L36.9765 29C36.7711 29.028 36.5238 29.0607 36.2345 29.098C35.9545 29.1353 35.7165 29.154 35.5205 29.154Z" fill="#3A86FF"/>
</svg>
